<svg xmlns="http://www.w3.org/2000/svg" height="1200" width="1600" version="1.1" xmlns:xlink="http://www.w3.org/1999/xlink" xmlns:svgjs="http://svgjs.com/svgjs"><rect fill="#f3ebe9" width="1600" height="1200"></rect><g><path d="M1116.05 346.25C1116.05 346.25 1146.91 241.48 1223.23 233.53 1293.45 226.14 1300.84 303.75 1300.84 303.75 1300.84 303.75 1323.2 274.19 1371.06 274.19 1407.83 274.19 1432.04 312.99 1422.8 346.25H1116.05Z" fill="#ffffff" opacity="1" stroke-width="4" stroke="none"></path></g><g><path d="M348.17 300.14C394.83 300.14 432.64 262.33 432.64 215.67 432.64 169.01 394.83 131.19 348.17 131.19 301.51 131.19 263.7 169.01 263.7 215.67 263.7 262.33 301.51 300.14 348.17 300.14Z" fill="#ffc930" opacity="1" stroke-width="4" stroke="none"></path><path d="M314.55 357.62C314.55 357.62 346.6 257.3 405.82 245.8 467.83 233.78 481.41 305.02 481.41 305.02 481.41 305.02 582.61 249.11 587.48 357.62H314.55Z" fill="#ffffff" opacity="1" stroke-width="4" stroke="none"></path></g><g><path d="M703.33 636.05V587.37H1236.6C1242.75 587.37 1247.73 592.35 1247.73 598.5V624.92C1247.73 631.06 1242.75 636.05 1236.6 636.05H703.33Z" fill="#ffc930" opacity="1" stroke-width="4" stroke="none"></path><path d="M1096.23 278.71H964.95V601.23H1096.23V278.71Z" fill="#ffc930" opacity="1" stroke-width="4" stroke="none"></path><path d="M965.29 278.71H834V601.23H965.29V278.71Z" fill="#ffc930" opacity="1" stroke-width="4" stroke="none"></path><path d="M1227.25 278.71H1095.96V601.23H1227.25V278.71Z" fill="#ffc930" opacity="1" stroke-width="4" stroke="none"></path><path d="M702.98 601.23V325.34C705.99 298.78 728.45 278.71 755.21 278.71H834.27V601.23H702.98Z" fill="#ffc930" opacity="1" stroke-width="4" stroke="none"></path><path d="M703.05 601.16V401.39C703.05 401.19 703.39 401.12 703.46 401.39L735.76 601.23H703.05V601.16Z" fill="#1b1b1b" opacity="0.2" stroke-width="4" stroke="none"></path><path d="M834.14 278.84V601.09" stroke="#1b1b1b" stroke-width="4" stroke-linecap="round" stroke-linejoin="round" opacity="1" fill="none"></path><path d="M965.08 278.84V601.09" stroke="#1b1b1b" stroke-width="4" stroke-linecap="round" stroke-linejoin="round" opacity="1" fill="none"></path><path d="M1096.1 278.84V601.09" stroke="#1b1b1b" stroke-width="4" stroke-linecap="round" stroke-linejoin="round" opacity="1" fill="none"></path><path d="M702.78 601.23H1234.62" stroke="#a3883c" stroke-width="4" stroke-linecap="round" stroke-linejoin="round" opacity="1" fill="none"></path><path d="M605.97 556.58H389.27V671.55H605.97V556.58Z" fill="#ffc930" opacity="1" stroke-width="4" stroke="none"></path><path d="M378.01 607.92C392.22 607.92 403.75 596.39 403.75 582.18 403.75 567.96 392.22 556.44 378.01 556.44 363.79 556.44 352.27 567.96 352.27 582.18 352.27 596.39 363.79 607.92 378.01 607.92Z" fill="#cecece" opacity="1" stroke-width="4" stroke="none"></path><path d="M365.65 671.55C358.28 671.55 352.34 665.61 352.34 658.23V634.82C352.34 627.44 358.28 621.5 365.65 621.5H401.08L401.02 621.71C395.69 633.86 392.96 646.83 392.96 660.21V671.55H365.65Z" fill="#ffc930" opacity="1" stroke-width="4" stroke="none"></path><path d="M584.53 671.55V660.15C584.53 616.86 555.38 578.83 513.6 567.64 505.47 565.45 497.07 564.36 488.75 564.36 445.6 564.36 407.57 593.44 396.3 635.16 396.3 635.23 396.24 635.29 396.1 635.29L374.12 635.36C373.98 635.36 373.91 635.29 373.91 635.16L377.39 562.79C378.35 542.79 392 525.85 411.32 520.53L534.62 486.94C534.69 486.94 534.76 486.87 534.76 486.8L568.56 407.26C574.97 392.18 589.65 382.41 606.11 382.41H683.94C694.79 382.41 703.6 391.22 703.6 402.08V651.82C703.6 662.67 694.79 671.48 683.94 671.48L584.53 671.55Z" fill="#ffc930" opacity="1" stroke-width="4" stroke="none"></path><path d="M378.21 556.58C377.8 558.62 377.6 560.67 377.46 562.79L375.34 607.78" stroke="#505050" stroke-width="4" stroke-linecap="round" stroke-linejoin="round" opacity="1" fill="none"></path><path d="M488.75 729.58C527.09 729.58 558.18 698.49 558.18 660.15 558.18 621.8 527.09 590.71 488.75 590.71 450.4 590.71 419.31 621.8 419.31 660.15 419.31 698.49 450.4 729.58 488.75 729.58Z" fill="#a3883c" opacity="1" stroke-width="4" stroke="none"></path><path d="M488.75 681.79C500.7 681.79 510.39 672.1 510.39 660.15 510.39 648.19 500.7 638.5 488.75 638.5 476.79 638.5 467.1 648.19 467.1 660.15 467.1 672.1 476.79 681.79 488.75 681.79Z" fill="#ffc930" opacity="1" stroke-width="4" stroke="none"></path><path d="M550.4 490.62V490.28L583.03 413.48C586.99 404.19 596 398.18 606.11 398.18H683.94C686.12 398.18 687.9 399.96 687.9 402.14V490.62H550.4Z" fill="#fbf8f1" opacity="1" stroke-width="4" stroke="none"></path><path d="M583.37 601.23C572.58 581.91 551.97 568.25 550.46 567.29 550.4 567.23 550.4 567.23 550.4 567.16V490.56C550.4 490.42 550.46 490.35 550.6 490.35H687.69C687.83 490.35 687.9 490.42 687.9 490.56V601.02C687.9 601.16 687.83 601.23 687.69 601.23H583.37Z" fill="#ffc930" opacity="1" stroke-width="4" stroke="none"></path><path d="M658.06 550.02C653.62 550.02 650.07 546.47 650.07 542.03V515.41C650.07 510.9 653.56 507.42 658.06 507.42H662.84C667.28 507.42 670.83 510.97 670.83 515.41V542.03C670.83 546.47 667.28 550.02 662.84 550.02H658.06Z" fill="#a3883c" opacity="1" stroke-width="4" stroke="none"></path><path d="M457.27 541.56C453.65 541.56 450.51 539.17 449.56 535.68 448.4 531.38 450.85 526.95 455.09 525.79L470.86 521.35C471.61 521.14 472.36 521.01 473.04 521.01 476.59 521.01 479.73 523.4 480.76 526.88 481.92 531.18 479.46 535.62 475.23 536.78L459.46 541.21C458.77 541.49 458.02 541.56 457.27 541.56Z" fill="#ffffff" opacity="1" stroke-width="4" stroke="none"></path><path d="M561.39 507.69C555.31 507.69 550.4 502.78 550.4 496.7V428.97C550.4 422.9 555.31 417.98 561.39 417.98H570.74C576.82 417.98 581.73 422.9 581.73 428.97V496.7C581.73 502.78 576.82 507.69 570.74 507.69H561.39Z" fill="#a3883c" opacity="1" stroke-width="4" stroke="none"></path><path d="M600.37 671.41V660.15C600.37 622.8 581.66 587.84 550.53 567.16" stroke="#505050" stroke-width="4" stroke-linecap="round" stroke-linejoin="round" opacity="1" fill="none"></path><path d="M600.44 671.55C600.3 671.55 600.23 671.48 600.23 671.34 600.44 668.41 602.28 634.95 589.31 611.67 575.38 582.72 552.1 568.25 550.46 567.23 550.4 567.16 550.4 567.16 550.4 567.09V564.29C550.4 564.15 550.53 564.09 550.67 564.09 552.85 565.04 568.62 572.07 583.99 587.44 599.35 602.73 617.85 629.7 618.94 671.34V671.48H600.44V671.55Z" fill="#a3883c" stroke="#505050" stroke-width="4" opacity="0.2"></path><path d="M703.6 401.39V636.05" stroke="#505050" stroke-width="4" stroke-linecap="round" stroke-linejoin="round" opacity="1" fill="none"></path><path d="M366.2 635.36L396.24 635.29" stroke="#1b1b1b" stroke-width="4" stroke-linecap="round" stroke-linejoin="round" opacity="1" fill="none"></path><path d="M1110.03 729.58C1148.37 729.58 1179.46 698.49 1179.46 660.15 1179.46 621.8 1148.37 590.71 1110.03 590.71 1071.68 590.71 1040.59 621.8 1040.59 660.15 1040.59 698.49 1071.68 729.58 1110.03 729.58Z" fill="#a3883c" opacity="1" stroke-width="4" stroke="none"></path><path d="M1110.03 681.79C1121.98 681.79 1131.67 672.1 1131.67 660.15 1131.67 648.19 1121.98 638.5 1110.03 638.5 1098.07 638.5 1088.38 648.19 1088.38 660.15 1088.38 672.1 1098.07 681.79 1110.03 681.79Z" fill="#ffc930" opacity="1" stroke-width="4" stroke="none"></path></g><g><path d="M628.79 873.55H532.34V1006.86H628.79V873.55Z" fill="#ffc930" opacity="1" stroke-width="4" stroke="none"></path><path d="M535.02 921.16L628.79 889.02V873.55H535.02V921.16Z" fill="#000000" opacity="0.2" stroke-width="4" stroke="none"></path><path d="M535.02 873.55H406.41V1006.86H535.02V873.55Z" fill="#c18f00" opacity="1" stroke-width="4" stroke="none"></path><path d="M508.22 909.26H433.2V971.15H508.22V909.26Z" fill="#eac661" opacity="1" stroke-width="4" stroke="none"></path><path d="M535.02 873.55V1006.86" stroke="#000000" stroke-width="4" stroke-linecap="round" stroke-linejoin="round" opacity="1" fill="none"></path></g><g><path d="M1164.36 897.69C1153.78 869.13 1127.8 832.93 1104.77 800.73 1101.12 795.55 1097.36 790.5 1093.84 785.45L1093.6 785.21 1200.2 759.47 1205.02 761.82C1209.72 768.4 1213.37 774.04 1217.13 780.04 1227.36 796.49 1236.52 813.54 1244.4 831.28 1248.28 840.1 1251.92 848.8 1255.45 858.08L1247.1 923.2 1164.36 897.69Z" fill="#e0a180" opacity="1" stroke-width="4" stroke="none"></path><path d="M1119.46 821.29C1114.52 814.36 1109.59 807.42 1104.77 800.61 1101.12 795.44 1099.48 793.2 1095.83 788.15L1093.72 785.09 1189.04 757.35 1189.27 757.83C1169.29 768.64 1151.31 782.86 1136.15 799.67 1125.1 812.01 1120.05 821.18 1119.93 821.29L1119.69 821.65 1119.46 821.29Z" fill="#554a45" opacity="0.3" stroke-width="4" stroke="none"></path><path d="M957.5 278.05C953.85 279.23 949.97 279.81 946.1 279.7 935.52 279.7 926.58 276.05 922.24 269.94 915.07 260.18 914.95 248.78 921.53 228.1 920.83 227.16 915.77 220.69 916.71 216.58 917.3 214.23 920.83 212.47 927.05 211.64L927.64 209.65C930.93 199.77 933.99 191.07 937.63 183.91 942.8 173.8 957.85 176.38 969.6 171.92 977.36 168.86 976.89 168.51 985.12 168.63 1000.98 168.63 1007.21 165.69 1017.67 175.09 1034.36 190.13 1032.01 215.29 1029.07 230.68L1026.37 232.68C1024.96 241.73 1027.66 271.12 1024.02 289.22V289.45L958.55 293.09 956.2 286.04 957.5 278.05Z" fill="#e0a180" opacity="1" stroke-width="4" stroke="none"></path><path d="M957.5 278.05L966.55 274.41C966.9 274.29 967.13 274.17 967.49 274.17 968.19 274.17 968.9 274.52 969.25 275.11 969.6 275.7 969.72 276.4 969.37 277.11L963.37 290.74 956.2 286.04 957.5 278.05Z" fill="#554a45" opacity="0.3" stroke-width="4" stroke="none"></path><path d="M949.97 904.16C949.62 895.11 948.56 887.58 948.09 884.29 945.86 868.54 943.16 849.27 939.63 825.64L962.2 632.89 1040.12 793.44C1042.12 802.37 1045.18 817.89 1046.35 825.99 1049.29 845.15 1050.82 864.43 1051.05 883.82 1051.05 890.4 1051.17 897.1 1050.94 903.92L1012.85 971.38 949.97 904.16Z" fill="#e0a180" opacity="1" stroke-width="4" stroke="none"></path><path d="M953.97 762.53L961.61 644.29C961.85 641.23 965.96 640.41 967.25 643.11L1040.01 793.2C1040.12 793.44 1040.24 793.67 1040.24 793.91 1040.71 796.02 1041.18 798.49 1041.65 801.2 1042.59 805.66 1043.53 810.72 1044.35 815.18 1044.59 816.24 1044.12 817.3 1043.3 818L1019.67 837.4C1018.38 838.45 1016.5 838.22 1015.44 837.04L954.44 764.76C954.09 764.05 953.85 763.23 953.97 762.53Z" fill="#554a45" opacity="0.3" stroke-width="4" stroke="none"></path><path d="M899.2 989.6L898.61 988.43C900.84 985.25 903.31 982.55 906.25 980.2 907.78 979.02 909.54 977.5 911.66 975.85 919.65 969.5 930.58 960.81 937.99 953.05 946.8 943.65 950.91 926.71 949.97 904.14V903.91H971.84C980.65 903.91 988.76 908.73 992.99 916.37L1011.44 950.11C1011.56 950.23 1011.68 950.23 1011.68 950.11L1016.5 923.77C1018.61 912.37 1028.6 904.03 1040.24 904.03H1050.82V904.26C1050 932.7 1047.06 960.69 1041.65 988.54 1041.65 988.54 1041.65 988.54 1041.65 988.66L1040.83 989.6H1040.71 899.2Z" fill="#ffffff" opacity="1" stroke-width="4" stroke="none"></path><path d="M767.91 368.55C762.86 358.44 760.27 351.39 759.8 350.33 758.39 349.98 746.05 346.93 735.36 331.29 734.77 332.47 732.54 335.99 728.54 335.99 725.72 335.99 722.66 334.35 719.25 330.94 711.14 322.83 710.09 317.07 710.67 313.66 711.03 311.19 712.44 309.2 714.55 308.02 713.03 304.26 712.91 300.97 714.2 298.15 715.14 296.03 716.9 294.27 719.14 293.21 715.26 285.22 721.02 279.81 722.43 278.64 720.31 277.58 718.43 276.52 716.55 275.46 705.15 269.47 697.75 265.59 697.75 260.42 697.75 258.07 699.27 255.25 706.56 255.25 714.44 255.25 727.13 258.77 740.53 264.65 754.63 270.76 767.91 278.87 779.78 288.63 790.25 297.56 803.06 310.02 818.57 326.24L818.45 328.59 770.5 369.37 767.91 368.55Z" fill="#e0a180" opacity="1" stroke-width="4" stroke="none"></path><path d="M1070.56 515.59C1057.52 496.08 1043.41 485.97 1042.36 485.15L932.46 484.32 932.11 483.38 918.95 421.79C915.42 424.5 882.39 450 855.71 450 854.89 450 854.07 450 853.24 449.89 835.85 448.83 801.65 436.96 768.03 368.67L767.91 368.55 818.57 326.24 818.69 326.36C836.91 345.51 852.42 363.26 854.3 365.38 898.02 308.02 933.75 299.44 951.15 299.44 951.62 299.44 952.09 299.44 952.44 299.44H953.15C953.27 299.44 953.38 299.44 953.5 299.44L956.2 286.04H1025.9C1025.9 286.04 1024.37 293.68 1024.02 295.33 1026.61 295.68 1048.23 299.44 1063.16 315.9 1069.74 322.95 1092.66 332.23 1101.71 355.51 1107.24 369.37 1098.89 393 1102.53 405.93 1105.47 416.39 1107.71 426.26 1109 434.84 1114.76 471.51 1094.07 503.13 1070.8 515.47L1070.56 515.59Z" fill="#ff4f32" opacity="1" stroke-width="4" stroke="none"></path><path d="M1042.36 485.15L1042.47 483.38 1054.11 416.62C1063.63 420.03 1065.39 432.02 1067.27 444.83 1068.8 454.82 1070.33 465.05 1075.38 473.16 1084.67 488.08 1095.6 492.79 1095.6 492.79 1088.78 502.54 1080.08 510.53 1070.92 515.35 1070.92 515.35 1042.59 485.26 1042.36 485.15Z" fill="#000000" opacity="0.3" stroke-width="4" stroke="none"></path><path d="M1105.82 406.16C1104.06 406.16 1102.65 405.93 1102.65 405.93 1102.65 405.93 1100.07 397.58 1099.36 395.58 1092.31 376.31 1090.08 368.43 1077.73 341.4 1068.57 345.87 1055.05 347.98 1044.82 347.87 1031.07 347.75 1017.44 345.16 1005.92 337.76 996.17 331.65 983.82 319.07 980.65 293.21 979.48 283.69 979.71 274.05 981.12 264.65L981.24 264.53C981.24 264.53 1012.74 250.31 1005.8 229.51 1004.04 224.1 999.34 221.28 992.05 221.28 981.36 221.28 968.31 227.28 968.31 227.28 968.19 227.16 955.15 211.53 964.9 195.66 965.14 195.31 964.78 194.84 964.43 194.95 961.37 195.66 958.44 196.13 955.26 196.13 940.34 196.13 937.63 184.02 937.63 184.02V183.91C943.27 172.86 950.33 166.28 961.02 162.28 968.78 159.22 977.01 157.7 985.23 157.81 1001.1 157.81 1016.26 163.1 1026.84 172.5 1042.71 186.84 1039.65 213.41 1036.13 231.86L1036.01 232.21C1041.89 231.39 1047.76 230.92 1053.64 230.92 1074.09 230.92 1110.53 236.09 1124.98 270.53 1132.39 288.39 1134.5 314.96 1118.05 336.35 1120.87 337.29 1141.67 344.81 1144.96 361.15 1147.31 371.61 1144.61 382.54 1137.79 390.77 1130.04 399.93 1117.23 406.16 1105.82 406.16Z" fill="#573823" opacity="1" stroke-width="4" stroke="none"></path><path d="M939.63 825.64C938.1 815.3 936.58 805.07 935.05 795.2 931.76 772.87 928.7 752.18 927.17 741.14 911.19 625.13 925.29 510.18 932.11 483.62V483.38H1042.47 1042.59C1083.49 518.17 1097.83 560.37 1118.75 619.6 1129.1 648.75 1138.62 666.97 1156.13 696.71 1163.77 709.64 1172.7 720.45 1181.4 730.91 1186.1 736.55 1190.45 741.84 1194.45 747.25 1198.44 752.54 1201.97 757.24 1205.14 761.82L1016.38 807.31C1016.26 807.31 1016.26 807.31 1016.26 807.19L969.01 671.08C969.01 670.97 968.78 670.97 968.78 671.08L969.37 818.47C969.37 818.59 969.37 818.59 969.25 818.59L939.63 825.64Z" fill="#61ccff" opacity="1" stroke-width="4" stroke="none"></path><path d="M968.54 671.08L954.09 483.38" stroke="#2a4552" stroke-width="4" stroke-linecap="round" stroke-linejoin="round" opacity="1" fill="none"></path><path d="M892.5 1008.06V1007.82C892.38 1000.89 894.5 994.19 898.49 988.54L898.61 988.43H1041.77V988.66C1040.59 995.13 1038.95 1001.59 1037.07 1007.82L892.5 1008.06Z" fill="#8e8e8e" opacity="1" stroke-width="4" stroke="none"></path><path d="M1147.78 1007.94C1144.96 1001.59 1144.14 994.42 1145.67 987.49L1146.37 986.78 1276.13 930.35 1277.07 930.82C1278.48 937.29 1279.66 944 1280.48 950.7V950.82L1147.78 1007.94Z" fill="#8e8e8e" opacity="1" stroke-width="4" stroke="none"></path><path d="M1146.14 987.25C1145.9 987.37 1145.67 987.13 1145.79 986.9 1146.61 983.49 1147.78 980.08 1149.43 976.91 1150.14 975.5 1151.08 973.74 1152.02 971.85 1156.6 963.04 1163.65 949.76 1167.77 939.3 1171.88 928.6 1170.82 915.09 1164.47 897.81 1164.47 897.69 1164.47 897.57 1164.59 897.46L1185.51 888.17C1193.27 884.76 1202.32 885.82 1209.25 890.76L1237.82 911.21C1238.05 911.32 1238.29 911.21 1238.29 910.97L1234.29 887.47C1232.41 876.42 1238.29 865.49 1248.63 861.02L1255.56 857.96 1255.68 858.2C1264.61 881.71 1271.78 905.92 1277.19 930.48 1277.19 930.6 1277.19 930.72 1277.07 930.84L1146.14 987.25Z" fill="#ffffff" opacity="1" stroke-width="4" stroke="none"></path><path d="M947.62 933.54L969.48 938.12" stroke="#868686" stroke-width="4" stroke-linecap="round" stroke-linejoin="round" opacity="1" fill="none"></path><path d="M941.39 948.7L960.08 962.22" stroke="#868686" stroke-width="4" stroke-linecap="round" stroke-linejoin="round" opacity="1" fill="none"></path><path d="M1011.8 949.99L1006.16 988.43" stroke="#868686" stroke-width="4" stroke-linecap="round" stroke-linejoin="round" opacity="1" fill="none"></path><path d="M1238.17 910.85L1246.28 944.35" stroke="#868686" stroke-width="4" stroke-linecap="round" stroke-linejoin="round" opacity="1" fill="none"></path><path d="M1170.23 924.72L1188.1 926.37" stroke="#868686" stroke-width="4" stroke-linecap="round" stroke-linejoin="round" opacity="1" fill="none"></path><path d="M1167.77 939.42L1185.98 946.35" stroke="#868686" stroke-width="4" stroke-linecap="round" stroke-linejoin="round" opacity="1" fill="none"></path><path d="M1054.11 416.62L1042.47 483.38H932.11" stroke="#000000" stroke-width="4" stroke-linecap="round" stroke-linejoin="round" opacity="1" fill="none"></path><path d="M1069.39 453.88L1048.12 450.12" stroke="#000000" stroke-width="4" stroke-linecap="round" stroke-linejoin="round" opacity="1" fill="none"></path><path d="M854.3 365.38L842.55 381.01" stroke="#000000" stroke-width="4" stroke-linecap="round" stroke-linejoin="round" opacity="1" fill="none"></path><path d="M918.95 421.79L943.63 398.64" stroke="#000000" stroke-width="4" stroke-linecap="round" stroke-linejoin="round" opacity="1" fill="none"></path><path d="M722.43 278.63C732.07 279.33 742.06 281.8 750.87 285.8" stroke="#554a45" stroke-width="4" stroke-linecap="round" stroke-linejoin="round" opacity="1" fill="none"></path><path d="M719.14 293.21C730.54 293.92 744.99 298.74 744.99 298.74" stroke="#554a45" stroke-width="4" stroke-linecap="round" stroke-linejoin="round" opacity="1" fill="none"></path><path d="M714.55 308.02C721.02 306.85 735.71 310.84 737.94 312.84" stroke="#554a45" stroke-width="4" stroke-linecap="round" stroke-linejoin="round" opacity="1" fill="none"></path><path d="M957.5 278.05C963.37 275.58 966.55 274.41 966.55 274.41" stroke="#554a45" stroke-width="4" stroke-linecap="round" stroke-linejoin="round" opacity="1" fill="none"></path><path d="M983.59 239.97L975.36 244.67" stroke="#554a45" stroke-width="4" stroke-linecap="round" stroke-linejoin="round" opacity="1" fill="none"></path><path d="M1077.73 341.4C1089.49 336.7 1090.55 331.65 1090.55 331.65" stroke="#463122" stroke-width="4" stroke-linecap="round" stroke-linejoin="round" opacity="1" fill="none"></path><path d="M1118.05 336.35C1115.23 339.76 1111.58 342.93 1108.18 345.75" stroke="#463122" stroke-width="4" stroke-linecap="round" stroke-linejoin="round" opacity="1" fill="none"></path><path d="M1036.01 232.2L1031.78 250.54" stroke="#463122" stroke-width="4" stroke-linecap="round" stroke-linejoin="round" opacity="1" fill="none"></path><path d="M938.93 234.09C935.4 238.79 928.35 238.79 928.35 238.79" stroke="#554a45" stroke-width="4" stroke-linecap="round" stroke-linejoin="round" opacity="1" fill="none"></path><path d="M939.51 218.81C941.14 218.81 942.45 217.5 942.45 215.87 942.45 214.25 941.14 212.94 939.51 212.94 937.89 212.94 936.58 214.25 936.58 215.87 936.58 217.5 937.89 218.81 939.51 218.81Z" fill="#231f20" opacity="1" stroke-width="4" stroke="none"></path><path d="M918.95 421.79L934.11 407.57C935.05 406.87 938.22 406.52 939.4 406.52 941.04 406.52 942.45 408.28 943.51 409.57 944.57 410.75 944.92 412.39 944.57 414.04 940.92 432.14 927.53 458.23 927.41 458.58L926.94 459.52 918.95 421.79Z" fill="#000000" opacity="0.3" stroke-width="4" stroke="none"></path></g><g><path d="M591.78 819.61H836.84V1007.61C836.84 1007.74 836.84 1007.74 836.71 1007.74H591.91C591.78 1007.74 591.78 1007.74 591.78 1007.61V819.61 819.61Z" fill="#ff4f32" opacity="1" stroke-width="4" stroke="none"></path><path d="M577.91 763.34H849.38C849.51 763.34 849.51 763.34 849.51 763.48L850.04 820.68C850.04 820.81 850.18 820.68 850.04 820.68L577.78 820.14C577.64 820.14 577.78 818.41 577.78 818.28V763.34C577.78 763.34 577.78 763.34 577.91 763.34Z" fill="#5c332c" opacity="1" stroke-width="4" stroke="none"></path><path d="M748.98 822.94C748.98 841.34 734.04 856.14 715.78 856.14H711.91C693.38 856.14 678.58 841.34 678.58 822.94H748.98Z" fill="#000000" opacity="1" stroke-width="4" stroke="none"></path><path d="M591.51 820.68H836.58" stroke="#000000" stroke-width="4" stroke-linecap="round" stroke-linejoin="round" opacity="1" fill="none"></path></g></svg>