<svg xmlns="http://www.w3.org/2000/svg" height="1200" width="1600" version="1.1" xmlns:xlink="http://www.w3.org/1999/xlink" xmlns:svgjs="http://svgjs.com/svgjs"><rect fill="#effaff" width="1600" height="1200"></rect><g><path d="M848.97 802.68H783.4 783.2V802.48L848.77 613.79 848.97 613.59C848.97 613.59 849.17 613.59 849.17 613.79L914.74 802.48V802.68C914.74 802.68 914.74 802.68 914.54 802.68H869.23" fill="#abedd8" opacity="1" stroke-width="2" stroke="none"></path><path d="M848.97 802.68H783.4 783.2V802.48L848.77 613.79 848.97 613.59C848.97 613.59 849.17 613.59 849.17 613.79L914.74 802.48V802.68C914.74 802.68 914.74 802.68 914.54 802.68H869.23" stroke="#333333" stroke-width="2" stroke-linecap="round" stroke-linejoin="round" opacity="1" fill="none"></path><path d="M848.97 960.69V733.1" stroke="#333333" stroke-width="2" stroke-linecap="round" stroke-linejoin="round" opacity="1" fill="none"></path></g><g><path d="M818.59 612.6C818.59 612.6 818.7 612.6 818.59 612.6 818.7 612.49 818.7 612.49 818.7 612.49L754.76 457.26 754.65 457.15C754.65 457.15 754.54 457.15 754.54 457.26L690.6 612.49V612.6C690.6 612.6 690.6 612.6 690.71 612.6H730.88 730.99V612.71L690.6 710.73V710.84C690.6 710.84 690.6 710.84 690.71 710.84H818.59 818.7V710.73L778.31 612.71V612.6C778.31 612.6 778.31 612.6 778.42 612.6H818.59Z" fill="#abedd8" stroke="#333333" stroke-width="2" stroke-linecap="round" stroke-linejoin="round" opacity="1"></path><path d="M754.65 652.33V631.81" stroke="#333333" stroke-width="2" stroke-linecap="round" stroke-linejoin="round" opacity="1" fill="none"></path><path d="M754.65 960.4V662.97" stroke="#333333" stroke-width="2" stroke-linecap="round" stroke-linejoin="round" opacity="1" fill="none"></path><path d="M730.88 514.9C712.53 514.9 697.77 529.77 697.77 548.01V589.15C697.77 593.49 701.24 596.97 705.58 596.97 709.93 596.97 713.4 593.49 713.4 589.15V586.76 566.57C713.4 571.35 717.31 575.26 722.08 575.26 726.86 575.26 730.77 571.35 730.77 566.57V514.9H730.88Z" fill="#ffffff" stroke="#333333" stroke-width="2" stroke-linecap="round" stroke-linejoin="round" opacity="1"></path><path d="M741.19 599.03C738.04 599.03 735.54 596.53 735.54 593.38V589.69C735.54 586.55 738.04 584.05 741.19 584.05 744.34 584.05 746.83 586.55 746.83 589.69V593.38C746.83 596.53 744.34 599.03 741.19 599.03Z" fill="#ffffff" stroke="#333333" stroke-width="2" stroke-linecap="round" stroke-linejoin="round" opacity="1"></path></g><g><path d="M1262.26 869.61H940.25C934.44 869.61 929.77 867 929.77 863.75 929.77 860.5 934.44 857.89 940.25 857.89H1262.26C1268.07 857.89 1272.74 860.5 1272.74 863.75 1272.74 867 1268.07 869.61 1262.26 869.61Z" fill="#46cdcf" stroke="#333333" stroke-width="2" stroke-linecap="round" stroke-linejoin="round" opacity="1"></path><path d="M951.23 869.61V959.86" stroke="#333333" stroke-width="2" stroke-linecap="round" stroke-linejoin="round" opacity="1" fill="none"></path><path d="M1251.28 869.61V959.86" stroke="#333333" stroke-width="2" stroke-linecap="round" stroke-linejoin="round" opacity="1" fill="none"></path></g><g><path d="M422.86 235.65C429.54 235.65 434.96 241.06 434.96 247.75 434.96 254.44 429.54 259.85 422.86 259.85 416.17 259.85 410.75 254.44 410.75 247.75 410.75 241.06 416.17 235.65 422.86 235.65Z" fill="#ffffff" stroke="#333333" stroke-width="2" stroke-linecap="round" stroke-linejoin="round" opacity="1"></path><path d="M394.1 283.7C397.93 283.7 401.05 286.82 401.05 290.65 401.05 294.48 397.93 297.6 394.1 297.6 390.26 297.6 387.15 294.48 387.15 290.65 387.15 286.82 390.26 283.7 394.1 283.7Z" fill="#ffffff" stroke="#333333" stroke-width="2" stroke-linecap="round" stroke-linejoin="round" opacity="1"></path><path d="M1025.26 485.5C1029.09 485.5 1032.21 488.61 1032.21 492.45 1032.21 496.28 1029.09 499.4 1025.26 499.4 1021.42 499.4 1018.31 496.28 1018.31 492.45 1018.31 488.61 1021.42 485.5 1025.26 485.5Z" fill="#ffffff" stroke="#333333" stroke-width="2" stroke-linecap="round" stroke-linejoin="round" opacity="1"></path><path d="M1098.3 195C1100.03 205.65 1092.8 215.68 1082.15 217.42 1071.5 219.15 1061.47 211.91 1059.75 201.27 1058.01 190.61 1065.25 180.58 1075.89 178.86 1086.54 177.12 1096.57 184.36 1098.3 195Z" fill="#ffffff" stroke="#333333" stroke-width="2" stroke-linecap="round" stroke-linejoin="round" opacity="1"></path></g><g><path d="M1403.81 667.57L1333.2 496.02 1262.59 667.57H1307.2L1262.59 775.89H1403.81L1359.2 667.57H1403.81Z" fill="#abedd8" stroke="#333333" stroke-width="2" stroke-linecap="round" stroke-linejoin="round" opacity="1"></path><path d="M1333.2 711.25V697.31" stroke="#333333" stroke-width="2" stroke-linecap="round" stroke-linejoin="round" opacity="1" fill="none"></path><path d="M1333.2 959.5V723.07" stroke="#333333" stroke-width="2" stroke-linecap="round" stroke-linejoin="round" opacity="1" fill="none"></path><path d="M1299.12 530.09V579.86C1299.12 585.83 1303.92 590.63 1309.9 590.63 1315.87 590.63 1320.67 585.83 1320.67 579.86V569.44 594.5C1320.67 601.17 1326.06 606.68 1332.85 606.68 1339.52 606.68 1345.03 601.29 1345.03 594.5V567.1C1345.03 565.46 1346.32 564.17 1347.95 564.17 1349.59 564.17 1350.88 565.46 1350.88 567.1V574.59C1350.88 579.16 1354.51 582.79 1359.08 582.79 1363.65 582.79 1367.28 579.16 1367.28 574.59V529.98C1367.28 511.12 1352.05 495.9 1333.2 495.9 1314.35 496.02 1299.12 511.24 1299.12 530.09Z" fill="#ffffff" stroke="#333333" stroke-width="2" stroke-linecap="round" stroke-linejoin="round" opacity="1"></path><path d="M1305.1 643.91C1301.82 643.91 1299.12 641.22 1299.12 637.94V616.86C1299.12 613.59 1301.82 610.89 1305.1 610.89 1308.37 610.89 1311.07 613.59 1311.07 616.86V637.94C1311.07 641.34 1308.37 643.91 1305.1 643.91Z" fill="#ffffff" stroke="#333333" stroke-width="2" stroke-linecap="round" stroke-linejoin="round" opacity="1"></path></g><g><path d="M781.55 210.18H713.67C699.81 210.18 688.58 198.95 688.58 185.09 688.58 171.23 699.81 160 713.67 160H781.55C795.41 160 806.64 171.23 806.64 185.09 806.64 198.95 795.41 210.18 781.55 210.18Z" fill="#78c7e0" stroke="#333333" stroke-width="2" stroke-linecap="round" stroke-linejoin="round" opacity="1"></path><path d="M1061.81 343.6C1061.81 343.6 1222.73 343.6 1276.38 343.6 1290.46 343.6 1301.92 332.15 1301.92 318.06 1301.92 303.97 1290.46 292.52 1276.38 292.52H1226.43C1235.01 292.52 1242.02 285.51 1242.02 276.93 1242.02 268.34 1235.01 261.33 1226.43 261.33H1042.07C1042.07 245.74 1029.42 233 1013.75 233H945.41C914.9 233 890.12 257.79 890.12 288.3 890.12 318.81 914.9 343.6 945.41 343.6H960.93" fill="#78c7e0" opacity="1" stroke-width="2" stroke="none"></path><path d="M1061.81 343.6C1061.81 343.6 1222.73 343.6 1276.38 343.6 1290.46 343.6 1301.92 332.15 1301.92 318.06 1301.92 303.97 1290.46 292.52 1276.38 292.52H1226.43C1235.01 292.52 1242.02 285.51 1242.02 276.93 1242.02 268.34 1235.01 261.33 1226.43 261.33H1042.07C1042.07 245.74 1029.42 233 1013.75 233H945.41C914.9 233 890.12 257.79 890.12 288.3 890.12 318.81 914.9 343.6 945.41 343.6H960.93" stroke="#333333" stroke-width="2" stroke-linecap="round" stroke-linejoin="round" opacity="1" fill="none"></path><path d="M1190.41 292.52H1174.37" stroke="#333333" stroke-width="2" stroke-linecap="round" stroke-linejoin="round" opacity="1" fill="none"></path><path d="M1226.35 292.52H1198.48" stroke="#333333" stroke-width="2" stroke-linecap="round" stroke-linejoin="round" opacity="1" fill="none"></path><path d="M767.24 235.72V210.18" stroke="#333333" stroke-width="2" stroke-linecap="round" stroke-linejoin="round" opacity="1" fill="none"></path><path d="M781.93 272.18C776.35 266.38 772.06 259.3 769.65 251.39" stroke="#333333" stroke-width="2" stroke-linecap="round" stroke-linejoin="round" opacity="1" fill="none"></path><path d="M890.12 288.3H819.9C810.26 288.3 801.22 285.74 793.46 281.22" stroke="#333333" stroke-width="2" stroke-linecap="round" stroke-linejoin="round" opacity="1" fill="none"></path></g><g><path d="M578.92 395.9H548.49C538.61 395.9 530.66 387.89 530.66 378.07 530.66 368.2 538.67 360.25 548.49 360.25H627.55 614.32C597.8 360.25 584.45 346.9 584.45 330.37 584.45 313.92 597.8 300.5 614.32 300.5H790.22C802.58 300.5 812.58 310.5 812.58 322.86 812.58 335.22 802.58 345.22 790.22 345.22H836.3C850.28 345.22 861.64 356.58 861.64 370.56 861.64 384.53 850.28 395.9 836.3 395.9H643.76" fill="#78c7e0" opacity="1" stroke-width="2" stroke="none"></path><path d="M578.92 395.9H548.49C538.61 395.9 530.66 387.89 530.66 378.07 530.66 368.2 538.67 360.25 548.49 360.25H627.55 614.32C597.8 360.25 584.45 346.9 584.45 330.37 584.45 313.92 597.8 300.5 614.32 300.5H790.22C802.58 300.5 812.58 310.5 812.58 322.86 812.58 335.22 802.58 345.22 790.22 345.22H836.3C850.28 345.22 861.64 356.58 861.64 370.56 861.64 384.53 850.28 395.9 836.3 395.9H643.76" stroke="#333333" stroke-width="2" stroke-linecap="round" stroke-linejoin="round" opacity="1" fill="none"></path><path d="M633.08 395.9H591.47" stroke="#333333" stroke-width="2" stroke-linecap="round" stroke-linejoin="round" opacity="1" fill="none"></path></g><g><path d="M159.08 875.47L194 775.11 228.93 875.47H159.08Z" fill="#46cdcf" stroke="#333333" stroke-width="2" stroke-linecap="round" stroke-linejoin="round" opacity="1"></path><path d="M194 960.87V838.65" stroke="#333333" stroke-width="2" stroke-linecap="round" stroke-linejoin="round" opacity="1" fill="none"></path></g><g><path d="M701.91 664.5H712.99C712.99 664.5 713.09 664.5 713.09 664.4V664.3L566.75 519C566.75 519 566.75 519 566.65 519H398.53C398.53 519 398.43 519 398.43 519.1V519.2L544.68 664.4C544.68 664.4 544.68 664.4 544.78 664.4H701.91V664.5Z" fill="#78c7e0" stroke="#333333" stroke-width="2" stroke-linecap="round" stroke-linejoin="round" opacity="1"></path><path d="M675.8 664.5L529.36 519C529.36 519 529.36 519 529.25 519 529.15 519 529.15 519 529.15 519L396.82 650.6C396.82 650.6 396.82 650.6 396.72 650.6H225.78C225.68 650.6 225.68 650.6 225.68 650.7V961.7C225.68 961.8 225.68 961.8 225.78 961.8H675.7C675.8 961.8 675.8 961.8 675.8 961.7V664.5Z" fill="#3d84a8" stroke="#333333" stroke-width="2" stroke-linecap="round" stroke-linejoin="round" opacity="1"></path><path d="M225.68 664.5H203.81C203.81 664.5 203.71 664.5 203.71 664.4 203.71 664.3 203.71 664.3 203.71 664.3L350.05 519C350.05 519 350.05 519 350.15 519H566.65C566.65 519 566.75 519 566.75 519.1V519.2L420.4 664.4C420.4 664.4 420.4 664.4 420.3 664.4H225.68V664.5Z" fill="#78c7e0" stroke="#333333" stroke-width="2" stroke-linecap="round" stroke-linejoin="round" opacity="1"></path><path d="M465.86 743.4V715.6H592.85V961.8H465.86V775.1" stroke="#333333" stroke-width="2" stroke-linecap="round" stroke-linejoin="round" opacity="1" fill="none"></path><path d="M465.86 766.8V752.3" stroke="#333333" stroke-width="2" stroke-linecap="round" stroke-linejoin="round" opacity="1" fill="none"></path><path d="M573.9 844.1C577.3 844.1 580.05 841.37 580.05 838 580.05 834.63 577.3 831.9 573.9 831.9 570.51 831.9 567.76 834.63 567.76 838 567.76 841.37 570.51 844.1 573.9 844.1Z" fill="#78c7e0" stroke="#333333" stroke-width="2" stroke-linecap="round" stroke-linejoin="round" opacity="1"></path><path d="M333.12 817.9H265.29C265.19 817.9 265.19 817.9 265.19 817.8V749.3C265.19 730.7 280.41 715.6 299.15 715.6 317.9 715.6 333.12 730.7 333.12 749.3V817.9Z" fill="#78c7e0" stroke="#333333" stroke-width="2" stroke-linecap="round" stroke-linejoin="round" opacity="1"></path><path d="M255.81 817.9H342.59" stroke="#333333" stroke-width="2" stroke-linecap="round" stroke-linejoin="round" opacity="1" fill="none"></path><path d="M299.15 715.6V817.9" stroke="#333333" stroke-width="2" stroke-linecap="round" stroke-linejoin="round" opacity="1" fill="none"></path><path d="M310.14 766.8H265.19" stroke="#333333" stroke-width="2" stroke-linecap="round" stroke-linejoin="round" opacity="1" fill="none"></path><path d="M333.12 766.8H317.09" stroke="#333333" stroke-width="2" stroke-linecap="round" stroke-linejoin="round" opacity="1" fill="none"></path><path d="M283.33 568.4L331.81 520.3C339.57 512.6 350.05 508.3 361.04 508.3H556.06C562.01 508.3 566.75 513.1 566.75 518.9H553.54 553.44L533.79 538.4C521.9 550.2 505.77 556.8 488.94 556.8H482.09C474.43 556.8 468.18 550.6 468.18 543 468.18 539.7 465.46 537.1 462.23 537.1 458.9 537.1 456.28 539.8 456.28 543V553.4C456.28 562.2 449.13 569.3 440.26 569.3H327.27C319.71 569.3 313.67 575.4 313.67 582.8V590.2C313.67 601 304.8 609.8 293.91 609.8 283.03 609.8 274.16 601 274.16 590.2 274.26 582.1 277.48 574.2 283.33 568.4Z" fill="#ffffff" stroke="#333333" stroke-width="2" stroke-linecap="round" stroke-linejoin="round" opacity="1"></path><path d="M323.95 492.1C323.95 492 323.95 492 324.05 492H382.71C382.81 492 382.81 492 382.81 492.1V584.1C382.81 584.2 382.81 584.2 382.71 584.2H324.05C323.95 584.2 323.95 584.2 323.95 584.1V492.1Z" fill="#3d84a8" stroke="#333333" stroke-width="2" stroke-linecap="round" stroke-linejoin="round" opacity="1"></path><path d="M331.2 631.7C326.16 631.7 322.13 627.7 322.13 622.7V618.8C322.13 613.8 326.16 609.8 331.2 609.8 336.24 609.8 340.28 613.8 340.28 618.8V622.7C340.28 627.7 336.14 631.7 331.2 631.7Z" fill="#ffffff" stroke="#333333" stroke-width="2" stroke-linecap="round" stroke-linejoin="round" opacity="1"></path><path d="M553.54 518.9H531.27" stroke="#333333" stroke-width="2" stroke-linecap="round" stroke-linejoin="round" opacity="1" fill="none"></path><path d="M522.6 518.9H518.17" stroke="#333333" stroke-width="2" stroke-linecap="round" stroke-linejoin="round" opacity="1" fill="none"></path><path d="M382.2 961.8L383.01 664.2" stroke="#333333" stroke-width="2" stroke-linecap="round" stroke-linejoin="round" opacity="1" fill="none"></path><path d="M393.69 630.3L423.43 600.8C431.89 592.4 445.5 592.4 453.97 600.8 462.43 609.2 462.43 622.7 453.97 631.1L420.3 664.5C420.3 664.5 420.3 664.5 420.3 664.6V700.5C420.3 705.5 416.17 709.6 411.13 709.6 406.09 709.6 401.96 705.5 401.96 700.5V681.8 722.8C401.96 729.8 396.31 735.4 389.26 735.4 382.2 735.4 376.56 729.8 376.56 722.8V671.4C376.56 655.9 382.71 641.2 393.69 630.3Z" fill="#ffffff" stroke="#333333" stroke-width="2" stroke-linecap="round" stroke-linejoin="round" opacity="1"></path></g><g><path d="M1025.28 959.25H979.89 691.17 614.53 325.82C296.05 959.25 272.24 973.53 272.24 991.38 272.24 1009.23 296.05 1023.51 325.82 1023.51H472.41C448.59 1023.51 428.5 1035.11 428.5 1049.84 428.5 1064.12 447.85 1076.17 472.41 1076.17H614.53 805.02 1025.28C1078.85 1076.17 1122.01 1050.28 1122.01 1018.15 1122.01 1008.33 1118.29 999.41 1110.85 991.38V990.93H1111.59 1253.72C1281.99 990.93 1304.32 977.54 1305.06 960.58V960.14C1305.06 960.14 1305.06 960.14 1304.32 960.14H1025.28V959.25Z" fill="#ffffff" stroke="#333333" stroke-width="2" stroke-linecap="round" stroke-linejoin="round" opacity="1"></path><path d="M610.81 1023.51H666.62" stroke="#333333" stroke-width="2" stroke-linecap="round" stroke-linejoin="round" opacity="1" fill="none"></path><path d="M472.41 1023.51H554.26" stroke="#333333" stroke-width="2" stroke-linecap="round" stroke-linejoin="round" opacity="1" fill="none"></path></g><g><path d="M302.3 363.2C308.15 363.2 312.9 358.45 312.9 352.6 312.9 346.75 308.15 342 302.3 342 296.45 342 291.7 346.75 291.7 352.6 291.7 358.45 296.45 363.2 302.3 363.2Z" fill="#ffffff" stroke="#333333" stroke-width="2" stroke-linecap="round" stroke-linejoin="round" opacity="1"></path><path d="M1294.2 384.6C1300.06 384.6 1304.8 379.86 1304.8 374 1304.8 368.15 1300.06 363.4 1294.2 363.4 1288.35 363.4 1283.6 368.15 1283.6 374 1283.6 379.86 1288.35 384.6 1294.2 384.6Z" fill="#ffffff" stroke="#333333" stroke-width="2" stroke-linecap="round" stroke-linejoin="round" opacity="1"></path><path d="M927.1 577.1C932.96 577.1 937.7 572.36 937.7 566.5 937.7 560.65 932.96 555.9 927.1 555.9 921.25 555.9 916.5 560.65 916.5 566.5 916.5 572.36 921.25 577.1 927.1 577.1Z" fill="#ffffff" stroke="#333333" stroke-width="2" stroke-linecap="round" stroke-linejoin="round" opacity="1"></path><path d="M815.1 448.5C820.96 448.5 825.7 443.75 825.7 437.9 825.7 432.05 820.96 427.3 815.1 427.3 809.25 427.3 804.5 432.05 804.5 437.9 804.5 443.75 809.25 448.5 815.1 448.5Z" fill="#ffffff" stroke="#333333" stroke-width="2" stroke-linecap="round" stroke-linejoin="round" opacity="1"></path><path d="M573.8 429.6C576.56 429.6 578.8 427.36 578.8 424.6 578.8 421.84 576.56 419.6 573.8 419.6 571.04 419.6 568.8 421.84 568.8 424.6 568.8 427.36 571.04 429.6 573.8 429.6Z" fill="#ffffff" stroke="#333333" stroke-width="2" stroke-linecap="round" stroke-linejoin="round" opacity="1"></path><path d="M1001.3 521.6C1004.06 521.6 1006.3 519.36 1006.3 516.6 1006.3 513.84 1004.06 511.6 1001.3 511.6 998.54 511.6 996.3 513.84 996.3 516.6 996.3 519.36 998.54 521.6 1001.3 521.6Z" fill="#ffffff" stroke="#333333" stroke-width="2" stroke-linecap="round" stroke-linejoin="round" opacity="1"></path><path d="M903.2 779.8C905.96 779.8 908.2 777.56 908.2 774.8 908.2 772.04 905.96 769.8 903.2 769.8 900.44 769.8 898.2 772.04 898.2 774.8 898.2 777.56 900.44 779.8 903.2 779.8Z" fill="#ffffff" stroke="#333333" stroke-width="2" stroke-linecap="round" stroke-linejoin="round" opacity="1"></path><path d="M1161.8 410.8C1164.56 410.8 1166.8 408.56 1166.8 405.8 1166.8 403.04 1164.56 400.8 1161.8 400.8 1159.04 400.8 1156.8 403.04 1156.8 405.8 1156.8 408.56 1159.04 410.8 1161.8 410.8Z" fill="#ffffff" stroke="#333333" stroke-width="2" stroke-linecap="round" stroke-linejoin="round" opacity="1"></path><path d="M1214.3 527.4C1217.06 527.4 1219.3 525.16 1219.3 522.4 1219.3 519.64 1217.06 517.4 1214.3 517.4 1211.54 517.4 1209.3 519.64 1209.3 522.4 1209.3 525.16 1211.54 527.4 1214.3 527.4Z" fill="#ffffff" stroke="#333333" stroke-width="2" stroke-linecap="round" stroke-linejoin="round" opacity="1"></path></g><g><path d="M1175.92 935.09C1209.17 901.84 1209.17 847.93 1175.92 814.68 1142.67 781.43 1088.76 781.43 1055.51 814.68 1022.26 847.93 1022.26 901.84 1055.51 935.09 1088.76 968.34 1142.67 968.34 1175.92 935.09Z" fill="#ffffff" stroke="#333333" stroke-width="2" stroke-linecap="round" stroke-linejoin="round" opacity="1"></path><path d="M1152.01 780.48C1154.5 785.73 1155.88 791.54 1155.88 797.76 1155.88 819.94 1137.91 837.91 1115.73 837.91 1093.54 837.91 1075.58 819.94 1075.58 797.76 1075.58 775.57 1093.54 757.61 1115.73 757.61 1129.76 757.61 1142.06 764.79 1149.25 775.64" fill="#ffffff" opacity="1" stroke-width="2" stroke="none"></path><path d="M1152.01 780.48C1154.5 785.73 1155.88 791.54 1155.88 797.76 1155.88 819.94 1137.91 837.91 1115.73 837.91 1093.54 837.91 1075.58 819.94 1075.58 797.76 1075.58 775.57 1093.54 757.61 1115.73 757.61 1129.76 757.61 1142.06 764.79 1149.25 775.64" stroke="#333333" stroke-width="2" stroke-linecap="round" stroke-linejoin="round" opacity="1" fill="none"></path><path d="M1095.27 803.91L1047.52 797.83C1047.52 797.83 1047.45 797.83 1047.45 797.76 1047.45 797.69 1047.45 797.69 1047.52 797.69L1095.27 791.61C1098.94 791.12 1102.25 794.03 1102.25 797.76 1102.25 801.49 1098.94 804.39 1095.27 803.91Z" fill="#46cdcf" stroke="#333333" stroke-width="2" stroke-linecap="round" stroke-linejoin="round" opacity="1"></path><path d="M1099.28 761.34C1099.28 761.34 1099.28 761.27 1099.28 761.34 1099.21 761.27 1099.21 761.27 1099.21 761.2L1129.55 718.28H1129.62C1129.62 718.28 1129.69 718.28 1129.69 718.35L1143.65 769.01V769.08H1143.58L1099.28 761.34Z" fill="#78c7e0" stroke="#333333" stroke-width="2" stroke-linecap="round" stroke-linejoin="round" opacity="1"></path><path d="M1129.96 722.02C1132.94 722.02 1135.36 719.6 1135.36 716.62 1135.36 713.65 1132.94 711.23 1129.96 711.23 1126.99 711.23 1124.57 713.65 1124.57 716.62 1124.57 719.6 1126.99 722.02 1129.96 722.02Z" fill="#78c7e0" stroke="#333333" stroke-width="2" stroke-linecap="round" stroke-linejoin="round" opacity="1"></path><path d="M1119.67 732.38L1126.99 733.63" stroke="#333333" stroke-width="2" stroke-linecap="round" stroke-linejoin="round" opacity="1" fill="none"></path><path d="M1137.01 744.68L1125.4 742.68" stroke="#333333" stroke-width="2" stroke-linecap="round" stroke-linejoin="round" opacity="1" fill="none"></path><path d="M1107.92 748.97L1123.81 751.73" stroke="#333333" stroke-width="2" stroke-linecap="round" stroke-linejoin="round" opacity="1" fill="none"></path><path d="M1128.38 752.56L1132.04 753.18" stroke="#333333" stroke-width="2" stroke-linecap="round" stroke-linejoin="round" opacity="1" fill="none"></path><path d="M1174.33 855.46V899.21" stroke="#333333" stroke-width="2" stroke-linecap="round" stroke-linejoin="round" opacity="1" fill="none"></path><path d="M1166.32 897.62L1174.33 889.53 1182.42 897.62" stroke="#333333" stroke-width="2" stroke-linecap="round" stroke-linejoin="round" opacity="1" fill="none"></path><path d="M1057.12 855.46V899.21" stroke="#333333" stroke-width="2" stroke-linecap="round" stroke-linejoin="round" opacity="1" fill="none"></path><path d="M1049.04 897.62L1057.12 889.53 1065.14 897.62" stroke="#333333" stroke-width="2" stroke-linecap="round" stroke-linejoin="round" opacity="1" fill="none"></path><path d="M1115.73 866.66C1118.29 866.66 1120.36 864.59 1120.36 862.03 1120.36 859.47 1118.29 857.4 1115.73 857.4 1113.17 857.4 1111.1 859.47 1111.1 862.03 1111.1 864.59 1113.17 866.66 1115.73 866.66Z" fill="#46cdcf" stroke="#333333" stroke-width="2" stroke-linecap="round" stroke-linejoin="round" opacity="1"></path><path d="M1115.73 886.22C1118.29 886.22 1120.36 884.14 1120.36 881.59 1120.36 879.03 1118.29 876.96 1115.73 876.96 1113.17 876.96 1111.1 879.03 1111.1 881.59 1111.1 884.14 1113.17 886.22 1115.73 886.22Z" fill="#46cdcf" stroke="#333333" stroke-width="2" stroke-linecap="round" stroke-linejoin="round" opacity="1"></path></g></svg>