<svg xmlns="http://www.w3.org/2000/svg" height="1200" width="1600" version="1.1" xmlns:xlink="http://www.w3.org/1999/xlink" xmlns:svgjs="http://svgjs.com/svgjs"><rect fill="#effaff" width="1600" height="1200"></rect><g><path d="M876.66 698.49L883.19 717.51 910.8 798.19V798.28C910.8 798.28 910.8 798.28 910.7 798.28H785.25 785.15V798.19L847.88 614.69 847.97 614.59C847.97 614.59 848.07 614.59 848.07 614.69L861.83 655.08" fill="#abedd8" opacity="1" stroke-width="2" stroke="none"></path><path d="M876.66 698.49L883.19 717.51 910.8 798.19V798.28C910.8 798.28 910.8 798.28 910.7 798.28H785.25 785.15V798.19L847.88 614.69 847.97 614.59C847.97 614.59 848.07 614.59 848.07 614.69L861.83 655.08" stroke="#333333" stroke-width="2" stroke-linecap="round" stroke-linejoin="round" opacity="1" fill="none"></path><path d="M865.14 664.73L873.53 689.12" stroke="#333333" stroke-width="2" stroke-linecap="round" stroke-linejoin="round" opacity="1" fill="none"></path><path d="M847.97 961.69V744.92" stroke="#333333" stroke-width="2" stroke-linecap="round" stroke-linejoin="round" opacity="1" fill="none"></path><path d="M886.51 726.58C899.97 726.58 910.8 737.51 910.8 750.87V815.16C910.8 818.38 908.26 820.92 905.04 820.92 901.82 820.92 899.29 818.38 899.29 815.16V813.41 827.55C899.29 831.06 896.46 833.89 892.95 833.89 889.43 833.89 886.61 831.06 886.61 827.55V726.58H886.51Z" fill="#ffffff" stroke="#333333" stroke-width="2" stroke-linecap="round" stroke-linejoin="round" opacity="1"></path></g><g><path d="M818.59 612.6C818.59 612.6 818.7 612.6 818.59 612.6 818.7 612.49 818.7 612.49 818.7 612.49L754.76 457.26 754.65 457.15C754.65 457.15 754.54 457.15 754.54 457.26L690.6 612.49V612.6C690.6 612.6 690.6 612.6 690.71 612.6H730.88 730.99V612.71L690.6 710.73V710.84C690.6 710.84 690.6 710.84 690.71 710.84H818.59 818.7V710.73L778.31 612.71V612.6C778.31 612.6 778.31 612.6 778.42 612.6H818.59Z" fill="#abedd8" stroke="#333333" stroke-width="2" stroke-linecap="round" stroke-linejoin="round" opacity="1"></path><path d="M754.65 652.33V631.81" stroke="#333333" stroke-width="2" stroke-linecap="round" stroke-linejoin="round" opacity="1" fill="none"></path><path d="M754.65 960.4V662.97" stroke="#333333" stroke-width="2" stroke-linecap="round" stroke-linejoin="round" opacity="1" fill="none"></path><path d="M730.88 514.9C712.53 514.9 697.77 529.77 697.77 548.01V589.15C697.77 593.49 701.24 596.97 705.58 596.97 709.93 596.97 713.4 593.49 713.4 589.15V586.76 566.57C713.4 571.35 717.31 575.26 722.08 575.26 726.86 575.26 730.77 571.35 730.77 566.57V514.9H730.88Z" fill="#ffffff" stroke="#333333" stroke-width="2" stroke-linecap="round" stroke-linejoin="round" opacity="1"></path><path d="M741.19 599.03C738.04 599.03 735.54 596.53 735.54 593.38V589.69C735.54 586.55 738.04 584.05 741.19 584.05 744.34 584.05 746.83 586.55 746.83 589.69V593.38C746.83 596.53 744.34 599.03 741.19 599.03Z" fill="#ffffff" stroke="#333333" stroke-width="2" stroke-linecap="round" stroke-linejoin="round" opacity="1"></path></g><g><path d="M942.78 821.18V868.79" stroke="#333333" stroke-width="2" stroke-linecap="round" stroke-linejoin="round" opacity="1" fill="none"></path><path d="M1212.92 821.18V868.79" stroke="#333333" stroke-width="2" stroke-linecap="round" stroke-linejoin="round" opacity="1" fill="none"></path><path d="M917.86 857.39C917.86 857.39 917.86 857.32 917.86 857.39L1237.83 857.32C1237.92 857.32 1237.92 857.32 1237.92 857.39V873C1237.92 873.07 1237.92 873.07 1237.83 873.07H917.95C917.86 873.07 917.86 873.07 917.86 873V857.39Z" fill="#46cdcf" stroke="#333333" stroke-width="2" stroke-linecap="round" stroke-linejoin="round" opacity="1"></path><path d="M1007.33 769.07H1223.81C1231.65 769.07 1238.01 774.27 1238.01 780.69V834.22C1238.01 834.29 1238.01 834.29 1237.92 834.29H917.95C917.86 834.29 917.86 834.29 917.86 834.22V780.69C917.86 774.27 924.22 769.07 932.06 769.07H960.81" fill="#46cdcf" opacity="1" stroke-width="2" stroke="none"></path><path d="M1007.33 769.07H1223.81C1231.65 769.07 1238.01 774.27 1238.01 780.69V834.22C1238.01 834.29 1238.01 834.29 1237.92 834.29H917.95C917.86 834.29 917.86 834.29 917.86 834.22V780.69C917.86 774.27 924.22 769.07 932.06 769.07H960.81" stroke="#333333" stroke-width="2" stroke-linecap="round" stroke-linejoin="round" opacity="1" fill="none"></path><path d="M942.78 873.07L917.86 961.95" stroke="#333333" stroke-width="2" stroke-linecap="round" stroke-linejoin="round" opacity="1" fill="none"></path><path d="M992.17 873.07L1017.17 961.95" stroke="#333333" stroke-width="2" stroke-linecap="round" stroke-linejoin="round" opacity="1" fill="none"></path><path d="M1212.83 873.07L1237.75 961.95" stroke="#333333" stroke-width="2" stroke-linecap="round" stroke-linejoin="round" opacity="1" fill="none"></path><path d="M970.39 769.07H997.66" stroke="#333333" stroke-width="2" stroke-linecap="round" stroke-linejoin="round" opacity="1" fill="none"></path></g><g><path d="M864.27 499.4V459.34" stroke="#333333" stroke-width="2" stroke-linecap="round" stroke-linejoin="round" opacity="1" fill="none"></path><path d="M884.3 479.37H844.24" stroke="#333333" stroke-width="2" stroke-linecap="round" stroke-linejoin="round" opacity="1" fill="none"></path><path d="M423.9 259.03V218.66" stroke="#333333" stroke-width="2" stroke-linecap="round" stroke-linejoin="round" opacity="1" fill="none"></path><path d="M443.93 239H403.87" stroke="#333333" stroke-width="2" stroke-linecap="round" stroke-linejoin="round" opacity="1" fill="none"></path><path d="M1061.8 218.66V178.6" stroke="#333333" stroke-width="2" stroke-linecap="round" stroke-linejoin="round" opacity="1" fill="none"></path><path d="M1081.83 198.63H1041.77" stroke="#333333" stroke-width="2" stroke-linecap="round" stroke-linejoin="round" opacity="1" fill="none"></path></g><g><path d="M1392.1 639.1C1392.1 639.1 1392.2 639.1 1392.1 639.1 1392.2 639 1392.2 639 1392.2 639L1333.3 496 1333.2 495.9C1333.2 495.9 1333.1 495.9 1333.1 496L1274.2 639V639.1C1274.2 639.1 1274.2 639.1 1274.3 639.1H1311.3 1311.4V639.2L1274.2 729.5V729.6C1274.2 729.6 1274.2 729.6 1274.3 729.6H1392.1 1392.2V729.5L1355 639.2V639.1C1355 639.1 1355 639.1 1355.1 639.1H1392.1Z" fill="#abedd8" stroke="#333333" stroke-width="2" stroke-linecap="round" stroke-linejoin="round" opacity="1"></path><path d="M1333.2 675.7V656.8" stroke="#333333" stroke-width="2" stroke-linecap="round" stroke-linejoin="round" opacity="1" fill="none"></path><path d="M1333.2 959.5V685.5" stroke="#333333" stroke-width="2" stroke-linecap="round" stroke-linejoin="round" opacity="1" fill="none"></path><path d="M1311.3 549.1C1294.4 549.1 1280.8 562.8 1280.8 579.6V617.5C1280.8 621.5 1284 624.7 1288 624.7 1292 624.7 1295.2 621.5 1295.2 617.5V615.3 596.7C1295.2 601.1 1298.8 604.7 1303.2 604.7 1307.6 604.7 1311.2 601.1 1311.2 596.7V549.1H1311.3Z" fill="#ffffff" stroke="#333333" stroke-width="2" stroke-linecap="round" stroke-linejoin="round" opacity="1"></path><path d="M1320.8 626.6C1317.9 626.6 1315.6 624.3 1315.6 621.4V618C1315.6 615.1 1317.9 612.8 1320.8 612.8 1323.7 612.8 1326 615.1 1326 618V621.4C1326 624.3 1323.7 626.6 1320.8 626.6Z" fill="#ffffff" stroke="#333333" stroke-width="2" stroke-linecap="round" stroke-linejoin="round" opacity="1"></path></g><g><path d="M928.7 256.5H866.9C854 256.5 843.5 246 843.5 233.1V223.4" stroke="#333333" stroke-width="2" stroke-linecap="round" stroke-linejoin="round" opacity="1" fill="none"></path><path d="M801.8 223.4H735.8C718.3 223.4 704.1 209.2 704.1 191.7 704.1 174.2 718.3 160 735.8 160H878C895.5 160 909.7 174.2 909.7 191.7 909.7 209.2 895.5 223.4 878 223.4H817.2" fill="#78c7e0" opacity="1" stroke-width="2" stroke="none"></path><path d="M801.8 223.4H735.8C718.3 223.4 704.1 209.2 704.1 191.7 704.1 174.2 718.3 160 735.8 160H878C895.5 160 909.7 174.2 909.7 191.7 909.7 209.2 895.5 223.4 878 223.4H817.2" stroke="#333333" stroke-width="2" stroke-linecap="round" stroke-linejoin="round" opacity="1" fill="none"></path><path d="M1239.6 232.6H951.2C938 232.6 927.4 243.3 927.4 256.4 927.4 269.6 938.1 280.2 951.2 280.2H1027.9C1010.4 280.2 996.2 294.4 996.2 311.9 996.2 329.4 1010.4 343.6 1027.9 343.6H1170.1C1187.6 343.6 1201.8 329.4 1201.8 311.9 1201.8 294.4 1187.6 280.2 1170.1 280.2H1262.6C1275.8 280.2 1286.4 269.5 1286.4 256.4 1286.4 243.2 1275.7 232.6 1262.6 232.6" fill="#78c7e0" opacity="1" stroke-width="2" stroke="none"></path><path d="M1239.6 232.6H951.2C938 232.6 927.4 243.3 927.4 256.4 927.4 269.6 938.1 280.2 951.2 280.2H1027.9C1010.4 280.2 996.2 294.4 996.2 311.9 996.2 329.4 1010.4 343.6 1027.9 343.6H1170.1C1187.6 343.6 1201.8 329.4 1201.8 311.9 1201.8 294.4 1187.6 280.2 1170.1 280.2H1262.6C1275.8 280.2 1286.4 269.5 1286.4 256.4 1286.4 243.2 1275.7 232.6 1262.6 232.6" stroke="#333333" stroke-width="2" stroke-linecap="round" stroke-linejoin="round" opacity="1" fill="none"></path><path d="M1027.9 280.3H1064.6" stroke="#333333" stroke-width="2" stroke-linecap="round" stroke-linejoin="round" opacity="1" fill="none"></path><path d="M1079.1 280.3H1097.5" stroke="#333333" stroke-width="2" stroke-linecap="round" stroke-linejoin="round" opacity="1" fill="none"></path></g><g><path d="M661.77 395.9C684.23 395.9 819.1 395.9 840.16 395.9 852.29 395.9 862.05 386.14 862.05 374 862.05 361.87 852.29 352.11 840.16 352.11H779.77C793.99 352.11 805.57 340.53 805.57 326.3 805.57 312.08 793.99 300.5 779.77 300.5 764.56 300.5 642.66 300.5 622.02 300.5 608.35 301.2 597.61 312.36 597.47 326.16H565.12C545.87 326.16 530.25 341.78 530.25 361.03 530.25 380.28 545.87 395.9 565.12 395.9H621.18" fill="#78c7e0" opacity="1" stroke-width="2" stroke="none"></path><path d="M661.77 395.9C684.23 395.9 819.1 395.9 840.16 395.9 852.29 395.9 862.05 386.14 862.05 374 862.05 361.87 852.29 352.11 840.16 352.11H779.77C793.99 352.11 805.57 340.53 805.57 326.3 805.57 312.08 793.99 300.5 779.77 300.5 764.56 300.5 642.66 300.5 622.02 300.5 608.35 301.2 597.61 312.36 597.47 326.16H565.12C545.87 326.16 530.25 341.78 530.25 361.03 530.25 380.28 545.87 395.9 565.12 395.9H621.18" stroke="#333333" stroke-width="2" stroke-linecap="round" stroke-linejoin="round" opacity="1" fill="none"></path><path d="M630.81 395.9H649.36" stroke="#333333" stroke-width="2" stroke-linecap="round" stroke-linejoin="round" opacity="1" fill="none"></path></g><g><path d="M184.49 884.27H174.77V961.35H184.49V884.27Z" fill="#48466d" stroke="#333333" stroke-width="2" opacity="1"></path><path d="M159.69 840.36C159.38 840.36 159.03 840.36 158.72 840.36H159.69Z" fill="#46cdcf" stroke="#333333" stroke-width="2" opacity="1"></path><path d="M209.89 849.67V885.44H159.69V840.36H200.55C205.67 840.36 209.85 844.55 209.89 849.67Z" fill="#46cdcf" stroke="#333333" stroke-width="2" opacity="1"></path><path d="M158.75 930.45C153.56 930.45 149.38 926.16 149.38 920.87V884.27H165.95L168.02 885.44V920.87C168.06 926.16 163.87 930.45 158.75 930.45Z" fill="#abedd8" stroke="#333333" stroke-width="2" opacity="1"></path><path d="M158.75 840.36C153.56 840.36 149.38 844.55 149.38 849.74V885.44H168.02V849.67C168.06 844.55 163.87 840.36 158.75 840.36Z" fill="#46cdcf" stroke="#333333" stroke-width="2" opacity="1"></path></g><g><path d="M225.47 877.09V544.88H665.9V961.88H225.47V877.09Z" fill="#3d84a8" stroke="#333333" stroke-width="2" stroke-linecap="round" stroke-linejoin="round" opacity="1"></path><path d="M307.98 507.31H206.93V568H684.31V507.31H318.3" fill="#ffffff" opacity="1" stroke-width="2" stroke="none"></path><path d="M307.98 507.31H206.93V568H684.31V507.31H318.3" stroke="#333333" stroke-width="2" stroke-linecap="round" stroke-linejoin="round" opacity="1" fill="none"></path><path d="M394.18 656.71H281.1V769.41H394.18V656.71Z" fill="#78c7e0" stroke="#333333" stroke-width="2" opacity="1"></path><path d="M271.52 656.71H403.75" stroke="#333333" stroke-width="2" stroke-linecap="round" stroke-linejoin="round" opacity="1" fill="none"></path><path d="M271.52 769.41H403.75" stroke="#333333" stroke-width="2" stroke-linecap="round" stroke-linejoin="round" opacity="1" fill="none"></path><path d="M337.7 656.71V769.41" stroke="#333333" stroke-width="2" stroke-linecap="round" stroke-linejoin="round" opacity="1" fill="none"></path><path d="M375.76 713H281.1" stroke="#333333" stroke-width="2" stroke-linecap="round" stroke-linejoin="round" opacity="1" fill="none"></path><path d="M394.18 713H382.39" stroke="#333333" stroke-width="2" stroke-linecap="round" stroke-linejoin="round" opacity="1" fill="none"></path><path d="M610.64 849.07V961.88H448.94V693.42C448.94 649 485.04 612.91 529.85 612.91 574.42 612.91 610.77 648.88 610.77 693.42V808.2" fill="#78c7e0" opacity="1" stroke-width="2" stroke="none"></path><path d="M610.64 849.07V961.88H448.94V693.42C448.94 649 485.04 612.91 529.85 612.91 574.42 612.91 610.77 648.88 610.77 693.42V808.2" stroke="#333333" stroke-width="2" stroke-linecap="round" stroke-linejoin="round" opacity="1" fill="none"></path><path d="M610.64 817.86V839.15" stroke="#333333" stroke-width="2" stroke-linecap="round" stroke-linejoin="round" opacity="1" fill="none"></path><path d="M619.85 942.43H439.73V961.64H619.85V942.43Z" fill="#d0d2d3" stroke="#333333" stroke-width="2" stroke-linecap="round" stroke-linejoin="round" opacity="1"></path></g><g><path d="M850.02 961.53H931.21" stroke="#333333" stroke-width="2" stroke-linecap="round" stroke-linejoin="round" opacity="1" fill="none"></path><path d="M364.85 961.53H816.46" stroke="#333333" stroke-width="2" stroke-linecap="round" stroke-linejoin="round" opacity="1" fill="none"></path><path d="M167.22 961.53H332.97" stroke="#333333" stroke-width="2" stroke-linecap="round" stroke-linejoin="round" opacity="1" fill="none"></path><path d="M1305.32 982.32H1431.14" stroke="#333333" stroke-width="2" stroke-linecap="round" stroke-linejoin="round" opacity="1" fill="none"></path><path d="M167.22 982.32H1275.46" stroke="#333333" stroke-width="2" stroke-linecap="round" stroke-linejoin="round" opacity="1" fill="none"></path><path d="M257.82 1003.21H338.01" stroke="#333333" stroke-width="2" stroke-linecap="round" stroke-linejoin="round" opacity="1" fill="none"></path><path d="M399.07 1003.21H1117.43" stroke="#333333" stroke-width="2" stroke-linecap="round" stroke-linejoin="round" opacity="1" fill="none"></path><path d="M167.22 1036.5H444.7" stroke="#333333" stroke-width="2" stroke-linecap="round" stroke-linejoin="round" opacity="1" fill="none"></path><path d="M167.22 1059.98H317.2" stroke="#333333" stroke-width="2" stroke-linecap="round" stroke-linejoin="round" opacity="1" fill="none"></path><path d="M525.23 1024H986.91" stroke="#333333" stroke-width="2" stroke-linecap="round" stroke-linejoin="round" opacity="1" fill="none"></path></g><g><path d="M302.3 363.2C308.15 363.2 312.9 358.45 312.9 352.6 312.9 346.75 308.15 342 302.3 342 296.45 342 291.7 346.75 291.7 352.6 291.7 358.45 296.45 363.2 302.3 363.2Z" fill="#ffffff" stroke="#333333" stroke-width="2" stroke-linecap="round" stroke-linejoin="round" opacity="1"></path><path d="M1294.2 384.6C1300.06 384.6 1304.8 379.86 1304.8 374 1304.8 368.15 1300.06 363.4 1294.2 363.4 1288.35 363.4 1283.6 368.15 1283.6 374 1283.6 379.86 1288.35 384.6 1294.2 384.6Z" fill="#ffffff" stroke="#333333" stroke-width="2" stroke-linecap="round" stroke-linejoin="round" opacity="1"></path><path d="M927.1 577.1C932.96 577.1 937.7 572.36 937.7 566.5 937.7 560.65 932.96 555.9 927.1 555.9 921.25 555.9 916.5 560.65 916.5 566.5 916.5 572.36 921.25 577.1 927.1 577.1Z" fill="#ffffff" stroke="#333333" stroke-width="2" stroke-linecap="round" stroke-linejoin="round" opacity="1"></path><path d="M815.1 448.5C820.96 448.5 825.7 443.75 825.7 437.9 825.7 432.05 820.96 427.3 815.1 427.3 809.25 427.3 804.5 432.05 804.5 437.9 804.5 443.75 809.25 448.5 815.1 448.5Z" fill="#ffffff" stroke="#333333" stroke-width="2" stroke-linecap="round" stroke-linejoin="round" opacity="1"></path><path d="M573.8 429.6C576.56 429.6 578.8 427.36 578.8 424.6 578.8 421.84 576.56 419.6 573.8 419.6 571.04 419.6 568.8 421.84 568.8 424.6 568.8 427.36 571.04 429.6 573.8 429.6Z" fill="#ffffff" stroke="#333333" stroke-width="2" stroke-linecap="round" stroke-linejoin="round" opacity="1"></path><path d="M1001.3 521.6C1004.06 521.6 1006.3 519.36 1006.3 516.6 1006.3 513.84 1004.06 511.6 1001.3 511.6 998.54 511.6 996.3 513.84 996.3 516.6 996.3 519.36 998.54 521.6 1001.3 521.6Z" fill="#ffffff" stroke="#333333" stroke-width="2" stroke-linecap="round" stroke-linejoin="round" opacity="1"></path><path d="M903.2 779.8C905.96 779.8 908.2 777.56 908.2 774.8 908.2 772.04 905.96 769.8 903.2 769.8 900.44 769.8 898.2 772.04 898.2 774.8 898.2 777.56 900.44 779.8 903.2 779.8Z" fill="#ffffff" stroke="#333333" stroke-width="2" stroke-linecap="round" stroke-linejoin="round" opacity="1"></path><path d="M1161.8 410.8C1164.56 410.8 1166.8 408.56 1166.8 405.8 1166.8 403.04 1164.56 400.8 1161.8 400.8 1159.04 400.8 1156.8 403.04 1156.8 405.8 1156.8 408.56 1159.04 410.8 1161.8 410.8Z" fill="#ffffff" stroke="#333333" stroke-width="2" stroke-linecap="round" stroke-linejoin="round" opacity="1"></path><path d="M1214.3 527.4C1217.06 527.4 1219.3 525.16 1219.3 522.4 1219.3 519.64 1217.06 517.4 1214.3 517.4 1211.54 517.4 1209.3 519.64 1209.3 522.4 1209.3 525.16 1211.54 527.4 1214.3 527.4Z" fill="#ffffff" stroke="#333333" stroke-width="2" stroke-linecap="round" stroke-linejoin="round" opacity="1"></path></g><g><path d="M1114.16 769.03H1209.51V808.01L1161.69 815.44 1114.16 808.01V769.03Z" fill="#ffffff" stroke="#333333" stroke-width="2" stroke-linecap="round" stroke-linejoin="round" opacity="1"></path><path d="M1195.72 767.92H1174.6V794.09H1195.72V767.92Z" fill="#46cdcf" stroke="#333333" stroke-width="2" stroke-linecap="round" stroke-linejoin="round" opacity="1"></path><path d="M1174.6 794V797.9" stroke="#333333" stroke-width="2" stroke-linecap="round" stroke-linejoin="round" opacity="1" fill="none"></path><path d="M1178.8 794.37V797.9" stroke="#333333" stroke-width="2" stroke-linecap="round" stroke-linejoin="round" opacity="1" fill="none"></path><path d="M1182.91 794.37V797.9" stroke="#333333" stroke-width="2" stroke-linecap="round" stroke-linejoin="round" opacity="1" fill="none"></path><path d="M1187.21 794.37V797.9" stroke="#333333" stroke-width="2" stroke-linecap="round" stroke-linejoin="round" opacity="1" fill="none"></path><path d="M1191.42 794.37V797.9" stroke="#333333" stroke-width="2" stroke-linecap="round" stroke-linejoin="round" opacity="1" fill="none"></path><path d="M1195.72 794V797.9" stroke="#333333" stroke-width="2" stroke-linecap="round" stroke-linejoin="round" opacity="1" fill="none"></path><path d="M1185.55 782.86H1137.82C1110.83 782.86 1089.02 762.07 1089.02 736.45 1089.02 710.84 1110.83 690.14 1137.82 690.14H1185.55C1212.54 690.14 1234.35 710.84 1234.35 736.45 1234.45 762.07 1212.54 782.86 1185.55 782.86Z" fill="#ffffff" stroke="#333333" stroke-width="2" stroke-linecap="round" stroke-linejoin="round" opacity="1"></path><path d="M1193.77 745.83H1126.28V782.86H1175.87" fill="#ffffff" opacity="1" stroke-width="2" stroke="none"></path><path d="M1193.77 745.83H1126.28V782.86H1175.87" stroke="#333333" stroke-width="2" stroke-linecap="round" stroke-linejoin="round" opacity="1" fill="none"></path><path d="M1195.72 702.11H1174.6V745.83H1195.72V702.11Z" fill="#46cdcf" stroke="#333333" stroke-width="2" stroke-linecap="round" stroke-linejoin="round" opacity="1"></path><path d="M1174.01 721.6H1151.03C1139 721.6 1129.32 712.41 1129.32 701 1129.32 689.58 1139 680.39 1151.03 680.39H1174.01C1186.04 680.39 1195.72 689.58 1195.72 701 1195.72 712.41 1186.04 721.6 1174.01 721.6Z" fill="#46cdcf" stroke="#333333" stroke-width="2" stroke-linecap="round" stroke-linejoin="round" opacity="1"></path><path d="M1177.34 677.05L1177.43 691.07C1177.43 696.54 1180.37 701.28 1185.84 701.93 1181.25 709.72 1172.45 715.01 1162.37 715.01 1147.51 715.01 1135.58 703.6 1135.58 689.58 1135.58 685.22 1136.55 681.6 1138.61 677.98L1154.94 674.82 1177.34 677.05Z" fill="#ffffff" stroke="#333333" stroke-width="2" stroke-linecap="round" stroke-linejoin="round" opacity="1"></path><path d="M1176.16 691.53V677.98H1138.61C1143.11 669.81 1152.1 664.24 1162.37 664.24 1177.14 664.24 1189.17 675.66 1189.17 689.77 1189.17 694.22 1188 698.49 1185.84 702.11 1180.47 701.28 1176.16 696.82 1176.16 691.53Z" fill="#48466d" stroke="#333333" stroke-width="2" stroke-linecap="round" stroke-linejoin="round" opacity="1"></path><path d="M1150.54 684.94V695.43" stroke="#333333" stroke-width="2" stroke-linecap="round" stroke-linejoin="round" opacity="1" fill="none"></path><path d="M1150.54 695.43C1150.54 697.47 1152.3 699.23 1154.55 699.23 1156.8 699.23 1158.56 697.56 1158.56 695.43" stroke="#333333" stroke-width="2" stroke-linecap="round" stroke-linejoin="round" opacity="1" fill="none"></path><path d="M1136.55 736.08C1136.55 741.47 1132.05 745.83 1126.28 745.83" stroke="#333333" stroke-width="2" stroke-linecap="round" stroke-linejoin="round" opacity="1" fill="none"></path><path d="M1176.16 808.01H1104.48 1079.14C1059.78 808.01 1042.57 820.45 1037.48 838.09L1002.18 960.05H1060.56L1090.49 856.46H1135.67C1158.07 856.46 1176.26 839.2 1176.26 817.85V808.01H1176.16Z" fill="#48466d" stroke="#333333" stroke-width="2" stroke-linecap="round" stroke-linejoin="round" opacity="1"></path><path d="M1207.75 808.01H1137.63 1112.3C1092.93 808.01 1075.72 820.45 1070.64 838.09L1035.33 960.05H1093.72L1123.64 856.65H1168.63C1191.13 856.65 1209.32 839.2 1209.32 817.95L1209.61 808.01H1207.75V808.01Z" fill="#48466d" stroke="#333333" stroke-width="2" stroke-linecap="round" stroke-linejoin="round" opacity="1"></path><path d="M1077.48 824.72C1074.45 828.62 1072.01 833.26 1070.64 838.09L1037.19 953.73" stroke="#333333" stroke-width="2" stroke-linecap="round" stroke-linejoin="round" opacity="1" fill="none"></path><path d="M1090.1 813.86C1087.46 815.44 1085.11 817.11 1082.86 819.06" stroke="#333333" stroke-width="2" stroke-linecap="round" stroke-linejoin="round" opacity="1" fill="none"></path></g></svg>